HIERARCHY
ROOT Hips
{
 OFFSET 0.000000 0.000000 0.000000
 CHANNELS 6 Xposition Yposition Zposition Yrotation Xrotation Zrotation
 JOINT Chest
 {
  OFFSET 0.000000 9.585900 0.002600
  CHANNELS 3 Yrotation Xrotation Zrotation
  JOINT Chest2
  {
   OFFSET 0.000000 9.601200 -0.005300
   CHANNELS 3 Yrotation Xrotation Zrotation
   JOINT Chest3
   {
    OFFSET 0.000000 9.561800 0.000000
    CHANNELS 3 Yrotation Xrotation Zrotation
    JOINT Chest4
    {
     OFFSET 0.000000 9.552100 0.000000
     CHANNELS 3 Yrotation Xrotation Zrotation
     JOINT Neck
     {
      OFFSET 0.000000 14.453000 0.000000
      CHANNELS 3 Yrotation Xrotation Zrotation
      JOINT Head
      {
       OFFSET 0.000000 8.936500 -0.011300
       CHANNELS 3 Yrotation Xrotation Zrotation
       End Site
       {
        OFFSET 0.000000 17.073600 -0.006000
       }
      }
     }
     JOINT RightCollar
     {
      OFFSET -2.921100 9.558500 0.000000
      CHANNELS 3 Yrotation Xrotation Zrotation
      JOINT RightShoulder
      {
       OFFSET -13.519700 0.000000 0.000000
       CHANNELS 3 Yrotation Xrotation Zrotation
       JOINT RightElbow
       {
        OFFSET 0.000000 -29.696600 0.000000
        CHANNELS 3 Yrotation Xrotation Zrotation
        JOINT RightWrist
        {
         OFFSET 0.000000 -24.004700 0.000000
         CHANNELS 3 Yrotation Xrotation Zrotation
         End Site
         {
          OFFSET 0.000000 -17.728500 0.000000
         }
        }
       }
      }
     }
     JOINT LeftCollar
     {
      OFFSET 2.921100 9.558500 0.000000
      CHANNELS 3 Yrotation Xrotation Zrotation
      JOINT LeftShoulder
      {
       OFFSET 13.519700 0.000000 0.000000
       CHANNELS 3 Yrotation Xrotation Zrotation
       JOINT LeftElbow
       {
        OFFSET 0.000000 -29.696600 0.000000
        CHANNELS 3 Yrotation Xrotation Zrotation
        JOINT LeftWrist
        {
         OFFSET 0.000000 -24.004700 0.000000
         CHANNELS 3 Yrotation Xrotation Zrotation
         End Site
         {
          OFFSET 0.000000 -17.728500 0.000000
         }
        }
       }
      }
     }
    }
   }
  }
 }
 JOINT RightHip
 {
  OFFSET -7.771700 -0.012900 -0.001300
  CHANNELS 3 Yrotation Xrotation Zrotation
  JOINT RightKnee
  {
   OFFSET 0.000000 -40.869800 0.001200
   CHANNELS 3 Yrotation Xrotation Zrotation
   JOINT RightAnkle
   {
    OFFSET 0.000000 -39.717900 0.002100
    CHANNELS 3 Yrotation Xrotation Zrotation
    JOINT RightToe
    {
     OFFSET 0.000000 -4.965400 11.033500
     CHANNELS 3 Yrotation Xrotation Zrotation
     End Site
     {
      OFFSET 0.000000 -1.423100 5.872300
     }
    }
   }
  }
 }
 JOINT LeftHip
 {
  OFFSET 7.771700 -0.012900 -0.001300
  CHANNELS 3 Yrotation Xrotation Zrotation
  JOINT LeftKnee
  {
   OFFSET 0.000000 -40.869800 0.001200
   CHANNELS 3 Yrotation Xrotation Zrotation
   JOINT LeftAnkle
   {
    OFFSET 0.000000 -39.717900 0.002100
    CHANNELS 3 Yrotation Xrotation Zrotation
    JOINT LeftToe
    {
     OFFSET 0.000000 -4.965400 11.033500
     CHANNELS 3 Yrotation Xrotation Zrotation
     End Site
     {
      OFFSET 0.000000 -1.423100 5.872300
     }
    }
   }
  }
 }
}
MOTION
Frames: 15
Frame Time: 0.008333
-69.409025 47.845742 20.968220 174.317828 -32.321347 -1.375417 -1.082658 13.736824 2.108212 -0.876070 7.812288 1.719278 -1.166968 9.839203 2.105582 -0.922247 7.844113 1.704166 -1.869167 15.580137 -1.712651 -2.861739 -6.872737 -2.513229 7.754961 3.752666 -2.859665 0.207205 -16.873511 -8.449873 50.462065 -61.139406 -38.196504 14.239913 14.727339 -29.902989 -4.399953 -0.749569 -5.268289 4.432084 -16.661799 -1.318111 -74.611933 -43.185144 50.714003 -10.176876 18.405093 30.821724 32.446261 -47.043512 -32.669172 -115.369796 63.781277 -104.860017 1.098551 -3.262886 4.937339 0.465610 -1.131132 -0.008837 -12.853534 -51.866816 15.677334 96.486834 79.566559 95.693615 -4.254984 -10.454344 -4.796031 -0.000608 1.127661 0.244369
-69.416858 47.860778 20.963895 174.286839 -32.304799 -1.378282 -1.088285 13.747621 2.102942 -0.885110 7.819535 1.722944 -1.164950 9.837247 2.101738 -0.901082 7.832572 1.708220 -1.834878 15.581551 -1.734083 -2.744681 -6.894262 -2.572709 7.692778 3.859183 -2.857069 0.158868 -16.971031 -8.495803 50.445938 -61.224126 -38.144039 14.196113 14.688368 -29.972243 -4.370469 -0.682648 -5.258039 4.483465 -16.703530 -1.219256 -74.466938 -43.361386 50.596131 -10.065142 18.321230 31.012408 32.363952 -47.075435 -32.673525 -115.379226 63.810225 -104.841664 1.135336 -3.274378 4.902031 0.489972 -1.151997 -0.002546 -12.723067 -51.874060 15.711871 96.511262 79.655195 95.682316 -4.272815 -10.499439 -4.757237 -0.005027 1.135899 0.253470
-69.425892 47.875042 20.959512 174.252194 -32.285143 -1.375208 -1.072099 13.740498 2.106704 -0.909409 7.834639 1.712934 -1.160877 9.838811 2.100243 -0.884452 7.821756 1.714697 -1.790989 15.593348 -1.753617 -2.618812 -6.894411 -2.622661 7.628421 3.957705 -2.863776 0.111689 -17.058361 -8.537251 50.459426 -61.289142 -38.124343 14.154977 14.646679 -30.038528 -4.341279 -0.616672 -5.249902 4.530581 -16.743960 -1.137461 -74.329085 -43.508887 50.496622 -9.959382 18.239173 31.190184 32.283257 -47.108808 -32.687934 -115.392287 63.843881 -104.830102 1.189409 -3.293991 4.856605 0.495684 -1.167435 0.012689 -12.599066 -51.884275 15.748601 96.554916 79.751210 95.682444 -4.277740 -10.543005 -4.719774 -0.013027 1.142425 0.260307
-69.437010 47.888079 20.955496 174.218756 -32.259308 -1.364669 -1.057021 13.726913 2.103580 -0.927916 7.847971 1.703499 -1.157272 9.842289 2.094815 -0.893576 7.820897 1.718400 -1.725207 15.593823 -1.763250 -2.470772 -6.873144 -2.675391 7.583765 4.039720 -2.878628 0.066512 -17.138203 -8.575357 50.489558 -61.339543 -38.123441 14.116984 14.608408 -30.097259 -4.290685 -0.560159 -5.240337 4.578004 -16.781180 -1.071622 -74.203168 -43.633663 50.415424 -9.859402 18.155094 31.358852 32.210215 -47.144456 -32.721820 -115.412279 63.882143 -104.827862 1.259091 -3.318478 4.785529 0.486216 -1.180773 0.038509 -12.475762 -51.903650 15.774860 96.611559 79.846242 95.694065 -4.276900 -10.582652 -4.685126 -0.019672 1.145802 0.265334
-69.449874 47.901198 20.949620 174.199182 -32.243648 -1.354117 -1.064115 13.736327 2.081240 -0.947334 7.875572 1.679990 -1.128528 9.820024 2.108674 -0.923026 7.845755 1.705177 -1.652906 15.553999 -1.741149 -2.286885 -6.828050 -2.742189 7.597916 4.039466 -2.871160 -0.014918 -17.160140 -8.622348 50.533183 -61.384261 -38.133822 14.091947 14.557464 -30.093307 -4.229434 -0.567547 -5.211049 4.636522 -16.773006 -1.018007 -74.097308 -43.740342 50.353872 -9.765249 18.073125 31.523877 32.127715 -47.166335 -32.764175 -115.443763 63.925801 -104.835169 1.315373 -3.333767 4.755170 0.496107 -1.205561 -0.005462 -12.353691 -51.917622 15.780434 96.679808 79.933495 95.719725 -4.277073 -10.613348 -4.649578 -0.030893 1.146595 0.300236
-69.457201 47.912130 20.946545 174.191000 -32.211972 -1.387579 -1.072585 13.752068 2.077135 -0.927520 7.849244 1.702264 -1.128157 9.828866 2.101311 -0.928321 7.855196 1.697233 -1.579137 15.556685 -1.738262 -2.122689 -6.806457 -2.776951 7.520628 4.121972 -2.882918 -0.045395 -17.251680 -8.654039 50.580730 -61.429888 -38.142134 14.044515 14.551704 -30.167307 -4.190507 -0.504655 -5.178860 4.688569 -16.811468 -0.986566 -74.012862 -43.834907 50.314162 -9.673924 17.992569 31.687595 32.013511 -47.219717 -32.778276 -115.487202 63.973642 -104.848285 1.380934 -3.346235 4.775404 0.505351 -1.233799 -0.060400 -12.293283 -51.943599 15.839037 96.683645 80.007613 95.730075 -4.329642 -10.637499 -4.674027 0.014967 1.146685 0.357588
-69.477995 47.922035 20.941655 174.155605 -32.182645 -1.327254 -1.056817 13.732680 2.024491 -0.925256 7.844552 1.706587 -1.129177 9.851150 2.084417 -0.923806 7.841822 1.707771 -1.512623 15.581562 -1.751234 -1.960245 -6.786643 -2.804272 7.436530 4.217483 -2.912072 -0.088172 -17.330212 -8.680985 50.620676 -61.479043 -38.139057 13.995771 14.542005 -30.240266 -4.165992 -0.425222 -5.164120 4.747832 -16.837363 -0.967469 -73.948032 -43.924736 50.296765 -9.583297 17.910467 31.850924 32.002919 -47.229915 -32.890924 -115.508344 64.048760 -104.879001 1.465432 -3.349484 4.805122 0.444141 -1.253352 -0.085705 -12.107898 -51.986549 15.780558 96.805246 80.077288 95.790181 -4.322844 -10.658639 -4.599998 -0.022641 1.131148 0.337292
-69.499385 47.932436 20.934456 174.129285 -32.169057 -1.267047 -1.047949 13.728419 1.967618 -0.924974 7.858088 1.695931 -1.122819 9.842552 2.093767 -0.922108 7.842070 1.707492 -1.378681 15.636741 -1.776668 -1.862243 -6.795746 -2.790539 7.380852 4.285046 -2.937339 -0.154703 -17.373913 -8.708135 50.649237 -61.533256 -38.129904 13.953115 14.512267 -30.289686 -4.142415 -0.367912 -5.151161 4.820458 -16.831183 -0.957276 -73.898800 -44.015054 50.294199 -9.496730 17.829902 32.015178 31.987568 -47.223136 -32.998757 -115.537391 64.117969 -104.913691 1.537436 -3.348646 4.831129 0.395921 -1.272730 -0.047647 -11.918088 -52.015881 15.708092 96.928055 80.136093 95.853291 -4.334173 -10.672522 -4.524250 -0.044608 1.103003 0.284114
-69.502541 47.943074 20.928255 174.133005 -32.163040 -1.330405 -1.035885 13.764573 2.002196 -0.921584 7.845577 1.705863 -1.117460 9.831181 2.102924 -0.917253 7.883377 1.674077 -1.267035 15.629980 -1.750477 -1.729575 -6.790320 -2.789233 7.335692 4.304254 -2.935614 -0.222282 -17.407283 -8.731514 50.666945 -61.592194 -38.119173 13.911215 14.479550 -30.340976 -4.124443 -0.369475 -5.102623 4.911525 -16.797081 -0.958424 -73.860389 -44.105053 50.299806 -9.415419 17.751791 32.171603 31.843632 -47.261750 -32.970991 -115.635934 64.128149 -104.913650 1.535508 -3.400196 4.696774 0.485886 -1.277261 0.006052 -11.889564 -52.016196 15.803654 97.022669 80.195948 95.916406 -4.337644 -10.704353 -4.476905 -0.065362 1.102012 0.249436
-69.515454 47.953671 20.919600 174.150650 -32.166750 -1.338646 -1.046450 13.798728 1.984347 -0.911295 7.866485 1.690188 -1.107683 9.829126 2.101535 -0.912344 7.866390 1.692255 -1.185378 15.635752 -1.734664 -1.583282 -6.778587 -2.789436 7.290272 4.351304 -2.949457 -0.289320 -17.432618 -8.752441 50.678943 -61.653043 -38.111408 13.871292 14.443432 -30.391248 -4.127173 -0.381735 -5.075752 5.030145 -16.721537 -0.970605 -73.834859 -44.195330 50.315250 -9.343186 17.677018 32.308941 31.739887 -47.256789 -33.006103 -115.688114 64.168877 -104.913095 1.506338 -3.347872 4.623550 0.572652 -1.361860 0.042885 -11.797471 -52.017850 15.797957 97.105525 80.255537 95.968709 -4.372312 -10.790545 -4.442981 -0.045377 1.155120 0.232345
-69.516707 47.961227 20.916669 174.162590 -32.140814 -1.412413 -1.038123 13.795235 2.045014 -0.905910 7.876994 1.686819 -1.107067 9.805356 2.111558 -0.898728 7.901577 1.673299 -1.107333 15.630828 -1.708818 -1.443645 -6.772043 -2.783107 7.248862 4.387431 -2.961629 -0.350582 -17.451738 -8.772834 50.706001 -61.725029 -38.119410 13.830557 14.417792 -30.448784 -4.114317 -0.362507 -5.044938 5.138708 -16.677916 -0.999947 -73.828838 -44.286430 50.348942 -9.287674 17.607215 32.422037 31.636833 -47.312020 -32.959274 -115.735850 64.181255 -104.911676 1.484721 -3.362411 4.611112 0.622869 -1.372147 0.047727 -11.803901 -52.034652 15.907897 97.126847 80.315472 95.996373 -4.425473 -10.820767 -4.456768 0.002833 1.162038 0.245297
-69.523307 47.969231 20.911555 174.154732 -32.127771 -1.437207 -1.024179 13.789774 2.071900 -0.901331 7.905877 1.678423 -1.097565 9.800740 2.110223 -0.891908 7.910328 1.674812 -1.072864 15.609996 -1.689338 -1.270260 -6.752115 -2.778639 7.215606 4.426053 -2.981426 -0.401731 -17.464850 -8.795755 50.758667 -61.818455 -38.143725 13.793956 14.418749 -30.524973 -4.064643 -0.291933 -5.019879 5.217094 -16.672957 -1.046912 -73.844348 -44.374732 50.404018 -9.248020 17.542229 32.513386 31.580749 -47.336077 -32.949489 -115.783304 64.201286 -104.916590 1.454364 -3.389121 4.588051 0.676955 -1.369729 0.071262 -11.752279 -52.045106 15.965996 97.234233 80.360747 96.054723 -4.423148 -10.851509 -4.396857 -0.030644 1.165315 0.220733
-69.533911 47.976017 20.907343 174.137614 -32.107497 -1.427719 -1.010921 13.805195 2.060793 -0.894257 7.909524 1.678181 -1.089178 9.801334 2.111177 -0.880447 7.915687 1.673834 -0.980759 15.616724 -1.662781 -1.165958 -6.767742 -2.752743 7.192541 4.418177 -2.985175 -0.444762 -17.434467 -8.836024 50.759623 -61.870367 -38.167152 13.763232 14.365715 -30.585407 -4.048115 -0.285627 -4.996591 5.328333 -16.611098 -1.091644 -73.870318 -44.457576 50.471482 -9.221240 17.482289 32.587663 31.527246 -47.351729 -32.983981 -115.810270 64.263865 -104.926064 1.479290 -3.429563 4.588754 0.669682 -1.356959 0.070261 -11.666901 -52.066878 15.983731 97.326530 80.401117 96.097140 -4.445738 -10.874592 -4.333752 -0.041160 1.161953 0.194742
-69.547505 47.980704 20.905791 174.121100 -32.069006 -1.395787 -1.004079 13.802723 2.027704 -0.887446 7.914691 1.676727 -1.068099 9.836655 2.101678 -0.885456 7.862234 1.694014 -0.885250 15.647070 -1.642411 -1.069296 -6.788132 -2.721164 7.166887 4.488287 -3.009933 -0.476935 -17.457753 -8.859473 50.768938 -61.863621 -38.235657 13.698826 14.260750 -30.632425 -4.027596 -0.259470 -4.985468 5.436615 -16.548982 -1.139862 -73.901272 -44.533201 50.547391 -9.202727 17.429498 32.648006 31.479624 -47.375165 -33.072817 -115.835163 64.364107 -104.954037 1.564060 -3.467319 4.611493 0.596815 -1.350406 0.043846 -11.597566 -52.108884 15.962822 97.351551 80.421669 96.104448 -4.485976 -10.874430 -4.347720 -0.009526 1.144524 0.199831
-69.556249 47.984515 20.906352 174.089852 -32.023498 -1.379432 -0.986623 13.795652 2.012110 -0.869722 7.920123 1.681538 -1.055922 9.842564 2.102886 -0.871229 7.879687 1.691320 -0.824242 15.627057 -1.608410 -0.960898 -6.800969 -2.689470 7.128946 4.508781 -3.021714 -0.498126 -17.474500 -8.890023 50.786107 -61.917214 -38.272566 13.649494 14.210392 -30.713828 -4.021480 -0.277674 -4.961882 5.537525 -16.487686 -1.189669 -73.940512 -44.603472 50.630469 -9.184557 17.386586 32.699732 31.465451 -47.418219 -33.123579 -115.851873 64.424728 -104.970286 1.613261 -3.499756 4.632065 0.555027 -1.338550 0.023403 -11.498399 -52.153461 15.990386 97.383670 80.485357 96.102167 -4.525298 -10.904522 -4.323064 0.004732 1.157102 0.236668
